<?xml version="1.0" encoding="utf-8"?>
<!-- Generator: Adobe Illustrator 16.0.0, SVG Export Plug-In . SVG Version: 6.00 Build 0)  -->
<!DOCTYPE svg PUBLIC "-//W3C//DTD SVG 1.1//EN" "http://www.w3.org/Graphics/SVG/1.1/DTD/svg11.dtd">
<svg version="1.1" xmlns="http://www.w3.org/2000/svg" xmlns:xlink="http://www.w3.org/1999/xlink" x="0px" y="0px" width="200px"
	 height="200px" viewBox="0 0 200 200" enable-background="new 0 0 200 200" xml:space="preserve">
<g id="Workflow_Optimizer" display="none">
	<g display="inline">
		<path fill="#21A6E2" d="M157.519,75.876H84.206c-2.547,0-4.623,2.073-4.623,4.624v5.422v1.883v72.286
			c0,2.55,2.076,4.624,4.623,4.624h73.313c2.551,0,4.624-2.074,4.624-4.624V87.805v-1.883V80.5
			C162.143,77.949,160.069,75.876,157.519,75.876z M158.149,158.226c0,1.433-1.164,2.593-2.594,2.593l-69.387,0.001
			c-1.43,0-2.592-1.161-2.592-2.594V89.815h74.572V158.226z"/>
		<g>
			<path fill="#21A6E2" d="M152.729,124.597c0-8.26-3.145-16.519-9.432-22.804c-12.575-12.574-33.037-12.575-45.609-0.001
				c-6.292,6.292-9.434,14.556-9.431,22.819c-0.003,8.264,3.14,16.527,9.431,22.818c12.576,12.572,33.037,12.572,45.609,0
				C149.593,141.134,152.735,132.866,152.729,124.597z M106.597,146.915c-0.094-0.067-0.184-0.138-0.281-0.202
				c-1.584-1.014-3.063-2.204-4.398-3.541c-5.116-5.113-7.676-11.832-7.683-18.549c0.002-6.729,2.563-13.453,7.683-18.574
				c1.417-1.416,2.992-2.669,4.686-3.723c0.119-0.074,0.23-0.156,0.344-0.238c8.418-5.066,19.082-4.993,27.439,0.217
				c0.094,0.067,0.186,0.139,0.285,0.201c1.584,1.016,3.064,2.207,4.4,3.543c5.116,5.118,7.677,11.838,7.681,18.563
				c-0.004,6.721-2.564,13.443-7.681,18.56c-1.418,1.417-2.993,2.671-4.688,3.724c-0.119,0.075-0.23,0.158-0.341,0.238
				C125.622,152.201,114.954,152.125,106.597,146.915z"/>
		</g>
		<path fill="#21A6E2" d="M134.279,138.391c-1.399,1.397-3.732,1.46-5.134,0.06l-8.652-8.648l-8.643,8.643
			c-1.399,1.396-3.732,1.336-5.133-0.066c-1.401-1.4-1.465-3.731-0.066-5.129l8.643-8.643l-8.65-8.646
			c-1.401-1.399-1.34-3.731,0.059-5.129c1.398-1.399,3.732-1.461,5.133-0.062l8.652,8.649l8.643-8.644
			c1.4-1.397,3.732-1.334,5.133,0.065c1.401,1.401,1.465,3.732,0.066,5.13l-8.643,8.643l8.652,8.646
			C135.738,134.66,135.679,136.992,134.279,138.391z"/>
		<path fill="#21A6E2" d="M73.03,110.667c-0.471-0.365-0.962-0.748-1.413-1.139l1.941-1.828v-7.409l-5.418,5.536
			c-0.334-0.402-0.669-0.719-0.981-1.142c-0.644-0.858-1.235-1.718-1.783-2.645c-1.391-2.353-2.471-5.062-3.183-7.767
			c-0.309-1.175-0.542-2.534-0.709-3.759c-0.087-0.65-0.155-1.113-0.202-2.319h11.677c0.117,1.521,0.321,2.741,0.601,3.782V81.252
			c-0.218,0.804-0.39,1.698-0.511,2.727H61.353c0.041,0,0.075-0.85,0.13-1.268c0.148-1.091,0.353-2.174,0.616-3.227
			c0.673-2.706,1.714-5.262,3.063-7.62c0.609-1.068,1.276-2.097,2.006-3.075c0.451-0.605,0.93-1.188,1.425-1.757l7.099,7.102
			c1.066-1.422,2.475-2.569,4.108-3.315L72.371,63.6c0.274-0.227,0.418-0.463,0.699-0.678c0.864-0.668,1.64-1.292,2.573-1.864
			c2.336-1.426,4.884-2.54,7.583-3.292c1.18-0.329,2.872-0.593,4.105-0.778c0.784-0.118,2.258-0.202,2.86-0.257v11.651
			c-1.734,0.217-3.716,0.727-5.573,1.467h15.272c-1.257-0.663-2.729-1.137-4.879-1.387V56.805c0,0.033,0.231,0.057,0.557,0.096
			c1.098,0.138,1.962,0.335,3.022,0.588c2.766,0.662,5.275,1.706,7.686,3.072c1.074,0.609,2.059,1.277,3.043,2.01
			c0.631,0.466,1.209,0.962,1.799,1.477l-5.51,5.804h6.618l2.3-2.292c0.244,0.293,0.495,0.592,0.727,0.896
			c0.351,0.456,0.688,0.921,1.01,1.396l22.771,0.001l1.004-0.589l-2.336-5.312l-8.635,2.475c-1.395-2.574-3.071-4.982-4.941-7.205
			l5.542-7.082l-4.082-4.076l-7.107,5.597c-2.378-1.953-4.979-3.644-7.744-5.051l2.396-8.81l-5.341-2.17l-4.43,8.053
			c-2.705-0.788-5.519-1.589-8.416-1.831l-1.131-9.881h-5.765l-1.105,9.941c-3.058,0.313-6.015,1.092-8.847,2.011l-4.808-8.396
			l-5.31,2.275l2.759,9.419c-2.464,1.354-4.779,2.954-6.919,4.752l-7.748-6.126l-4.076,4.079l6.177,7.769
			c-1.877,2.297-3.513,4.794-4.887,7.45l-9.616-2.669l-2.169,5.342l8.779,4.793c-0.773,2.614-0.996,5.331-1.259,8.128l-10.037,1.167
			v5.765l10.037,1.166c0.281,3.003,0.71,5.915,1.579,8.706l-8.507,4.771l2.203,5.313l9.265-2.697
			c1.323,2.477,2.871,4.809,4.635,6.965l-5.983,7.544l4.074,4.077l7.521-5.932c2.295,1.93,4.794,3.621,7.463,5.039l-2.537,9.154
			l4.827,1.96v-24.681C73.38,110.925,73.202,110.798,73.03,110.667z"/>
	</g>
	<path display="inline" fill="#21A6E2" d="M100,4.332c52.752,0,95.669,42.917,95.669,95.668c0,52.751-42.917,95.668-95.669,95.668
		S4.332,152.751,4.332,100C4.332,47.248,47.248,4.332,100,4.332 M100,0C44.771,0,0,44.771,0,100c0,55.228,44.771,100,100,100
		s100-44.771,100-100C200,44.771,155.229,0,100,0L100,0z"/>
</g>
<g id="Ad_Sync">
	<g>
		<g>
			<path fill="#21A6E2" d="M106.655,135.685c-1.02,0-1.99,0.195-2.889,0.536l-3.599-7.651c1.729-1.496,2.829-3.705,2.829-6.171
				c0-4.509-3.656-8.164-8.165-8.164c-1.019,0-1.989,0.194-2.889,0.534l-4.119-8.76c2.027-1.484,3.349-3.876,3.349-6.582
				c0-4.509-3.655-8.165-8.164-8.165c-4.509,0-8.164,3.656-8.164,8.165c0,2.707,1.323,5.098,3.35,6.583l-4.119,8.758
				c-0.899-0.34-1.871-0.534-2.889-0.534c-4.509,0-8.163,3.655-8.163,8.165c0,2.465,1.098,4.672,2.828,6.17l-3.598,7.651
				c-0.899-0.341-1.871-0.535-2.889-0.535c-4.509,0-8.164,3.653-8.164,8.163s3.654,8.164,8.164,8.164
				c4.508,0,8.164-3.654,8.164-8.164c0-2.619-1.237-4.941-3.152-6.436l3.543-7.535c1.001,0.438,2.105,0.685,3.267,0.685
				c1.163,0,2.266-0.247,3.267-0.685L78,137.414c-0.884,0.69-1.629,1.551-2.167,2.544c-0.628,1.155-0.985,2.481-0.985,3.892
				c0,1.408,0.357,2.735,0.985,3.892c1.382,2.544,4.078,4.272,7.178,4.272h0l0,0c4.509,0,8.165-3.654,8.165-8.164
				s-3.655-8.163-8.165-8.163l0,0h0c-1.018,0-1.989,0.194-2.888,0.535l-3.598-7.653c1.729-1.496,2.829-3.703,2.829-6.168
				c0-2.619-1.237-4.943-3.152-6.436l4.149-8.826c0.835,0.289,1.727,0.453,2.66,0.453c0.933,0,1.826-0.164,2.662-0.453l4.149,8.826
				c-1.915,1.492-3.152,3.816-3.152,6.436c0,4.508,3.655,8.163,8.164,8.163c1.163,0,2.266-0.246,3.267-0.685l3.544,7.535
				c-1.916,1.494-3.152,3.818-3.152,6.436c0,4.51,3.654,8.164,8.164,8.164c4.508,0,8.164-3.654,8.164-8.164
				C114.819,139.341,111.163,135.685,106.655,135.685z"/>
			<g>
				<path fill="#21A6E2" d="M120.524,70.722H45.432c-2.609,0-4.734,2.124-4.734,4.736v5.553v1.93v74.038
					c0,2.611,2.125,4.736,4.734,4.736h75.093c2.613,0,4.734-2.125,4.734-4.736V82.94v-1.93v-5.554
					C125.259,72.845,123.138,70.722,120.524,70.722z M121.169,155.071c0,1.466-1.19,2.657-2.656,2.657h-71.07
					c-1.464,0-2.654-1.191-2.654-2.657V84.999l76.38-0.001V155.071z"/>
			</g>
			<g>
				<path fill="#21A6E2" d="M166.719,84.819c0-19.927-12.466-36.935-30.022-43.668l-7.606,17.049
					c11.063,3.796,19.028,14.267,19.028,26.62c0,7.097-2.633,13.578-6.967,18.532l-2.781-10.257l-5.58,10.757v1.746v20.07v0.162
					l4.5,2.479l13.088,7.019l-3.537-12.23C158.882,114.637,166.719,100.652,166.719,84.819z"/>
				<path fill="#21A6E2" d="M99.259,30.972l3.017,10.546C92.838,45.378,84.945,52.233,79.772,60.9l25.344-0.001
					c0.756-0.47,1.527-0.918,2.33-1.316l0.377,1.316h10.082l2.262-4.242l6.036-11.324l-12.789-6.815L99.259,30.972z"/>
			</g>
		</g>
	</g>
	<path fill="#21A6E2" d="M100,4.332c52.752,0,95.669,42.917,95.669,95.668c0,52.751-42.917,95.668-95.669,95.668
		S4.332,152.751,4.332,100C4.332,47.248,47.248,4.332,100,4.332 M100,0C44.771,0,0,44.771,0,100c0,55.228,44.771,100,100,100
		s100-44.771,100-100C200,44.771,155.229,0,100,0L100,0z"/>
</g>
<g id="Asset_Management" display="none">
	<g display="inline">
		<g>
			<path fill="#21A6E2" d="M39.581,89.144v16h71v-16H39.581z M44.239,102.972c-1.361,0-2.466-1.104-2.466-2.465
				c0-1.363,1.104-2.466,2.466-2.466c1.363,0,2.465,1.104,2.465,2.466C46.704,101.868,45.602,102.972,44.239,102.972z
				 M52.306,102.972c-1.36,0-2.464-1.104-2.464-2.465c0-1.363,1.104-2.466,2.464-2.466c1.363,0,2.467,1.104,2.467,2.466
				C54.773,101.868,53.669,102.972,52.306,102.972z"/>
			<path fill="#21A6E2" d="M39.581,131.144h71v-18h-71V131.144z M52.306,121.884c1.363,0,2.467,1.104,2.467,2.467
				c0,1.359-1.104,2.465-2.467,2.465c-1.36,0-2.464-1.105-2.464-2.465C49.842,122.988,50.946,121.884,52.306,121.884z
				 M44.239,121.884c1.363,0,2.465,1.104,2.465,2.467c0,1.359-1.103,2.465-2.465,2.465c-1.361,0-2.466-1.105-2.466-2.465
				C41.773,122.988,42.877,121.884,44.239,121.884z"/>
			<path fill="#21A6E2" d="M39.581,154.144h71v-16h-71V154.144z M52.306,146.705c1.363,0,2.467,1.104,2.467,2.467
				c0,1.36-1.104,2.467-2.467,2.467c-1.36,0-2.464-1.106-2.464-2.467C49.842,147.808,50.946,146.705,52.306,146.705z
				 M44.239,146.705c1.363,0,2.465,1.104,2.465,2.467c0,1.36-1.103,2.467-2.465,2.467c-1.361,0-2.466-1.106-2.466-2.467
				C41.773,147.808,42.877,146.705,44.239,146.705z"/>
		</g>
		<g>
			<path fill="#21A6E2" d="M160.886,101.351c0-21.351-13.356-39.574-32.168-46.79l-8.15,18.269
				c11.854,4.067,20.388,15.286,20.388,28.521c0,7.605-2.82,14.55-7.466,19.857l-2.453-10.989l-5.455,11.524v1.873v21.504v0.173
				l4.297,2.657l13.762,7.52l-3.922-13.104C152.618,133.3,160.886,118.316,160.886,101.351z"/>
			<path fill="#21A6E2" d="M97.376,73.733l0.404,1.411h10.803l2.424-4.256l6.467-11.988l-13.703-7.231l-15.167-8.048l3.233,11.028
				c-10.114,4.135-18.571,11.496-24.113,20.496h27.155C95.689,75.144,96.516,74.16,97.376,73.733z"/>
			<polygon fill="#21A6E2" points="101.554,88.332 108.583,75.144 97.78,75.144 			"/>
		</g>
	</g>
	<path display="inline" fill="#21A6E2" d="M100,4.332c52.752,0,95.669,42.917,95.669,95.668c0,52.751-42.917,95.668-95.669,95.668
		S4.332,152.751,4.332,100C4.332,47.248,47.248,4.332,100,4.332 M100,0C44.771,0,0,44.771,0,100c0,55.228,44.771,100,100,100
		s100-44.771,100-100C200,44.771,155.229,0,100,0L100,0z"/>
</g>
<g id="Assigned_to_Me" display="none">
	<g display="inline">
		<path fill="#21A6E2" d="M86.11,70.144H61.168c-0.64,0-1.208,0.612-1.419,1.219L40.442,127.66
			c-0.056,0.158,0.139,0.431,0.139,0.598v24.34c0,0.831,0.226,1.547,1.056,1.547H86.11c0.83,0,1.471-0.716,1.471-1.547V72.064
			C87.581,71.235,86.94,70.144,86.11,70.144z"/>
		<path fill="#21A6E2" d="M107.581,71.646c0-0.83-0.673-1.502-1.503-1.502H94.084c-0.83,0-1.503,0.673-1.503,1.502v27.995
			c0,0.83,0.673,1.502,1.503,1.502h11.994c0.83,0,1.503-0.673,1.503-1.502V71.646z"/>
		<path fill="#21A6E2" d="M87.581,46.951c0-0.711-0.347-1.807-1.283-1.807H61.173c-0.936,0-1.592,1.096-1.592,1.807v18.114
			c0,0.711,0.656,1.08,1.592,1.08h25.125c0.936,0,1.283-0.369,1.283-1.08V46.951z"/>
		<path fill="#21A6E2" d="M159.286,127.806l-17.842-56.403c-0.197-0.625-0.891-1.259-1.545-1.259h-26.744
			c-0.83,0-0.574,1.091-0.574,1.92v80.533c0,0.831-0.256,1.547,0.574,1.547h44.473c0.83,0,1.953-0.716,1.953-1.547v-24.34
			C159.581,128.105,159.333,127.952,159.286,127.806z"/>
		<path fill="#21A6E2" d="M140.581,46.815c0-0.831-0.152-1.671-0.98-1.671h-25.537c-0.83,0-1.482,0.84-1.482,1.671v17.662
			c0,0.83,0.652,1.667,1.482,1.667h25.537c0.828,0,0.98-0.837,0.98-1.667V46.815z"/>
	</g>
	<path display="inline" fill="#21A6E2" d="M100,4.332c52.752,0,95.669,42.917,95.669,95.668c0,52.751-42.917,95.668-95.669,95.668
		S4.332,152.751,4.332,100C4.332,47.248,47.248,4.332,100,4.332 M100,0C44.771,0,0,44.771,0,100c0,55.228,44.771,100,100,100
		s100-44.771,100-100C200,44.771,155.229,0,100,0L100,0z"/>
</g>
<g id="Enterprise_Email" display="none">
	<g display="inline">
		<g>
			<path fill="#21A6E2" d="M34.581,72.144v85h99v-85H34.581z M127.581,152.144h-88v-62h88V152.144z"/>
		</g>
		<g>
			<g>
				<path fill="#21A6E2" d="M92.162,136.373c-2.814,1.484-5.678,2.051-9.107,2.051c-8.392,0-15.506-6.143-15.506-16.016
					c0-10.541,7.319-19.703,18.676-19.703c8.904,0,14.841,6.295,14.841,14.841c0,7.673-4.3,12.179-9.058,12.179
					c-2.045,0-3.939-1.334-3.837-4.506h-0.154c-1.792,3.021-4.146,4.506-7.215,4.506c-2.966,0-5.526-2.408-5.526-6.449
					c0-6.346,5.014-12.123,12.128-12.123c2.149,0,4.144,0.456,5.476,1.074l-1.742,9.257c-0.767,3.89-0.152,5.683,1.537,5.733
					c2.609,0.1,5.526-3.43,5.526-9.313c0-7.468-4.453-12.844-12.383-12.844c-8.342,0-15.352,6.653-15.352,17.04
					c0,8.545,5.578,13.865,13.152,13.865c2.917,0,5.628-0.612,7.725-1.791L92.162,136.373z M89.348,114.27
					c-0.513-0.202-1.381-0.407-2.561-0.407c-4.501,0-8.135,4.246-8.135,9.207c0,2.253,1.126,3.891,3.377,3.891
					c2.968,0,5.682-3.787,6.245-6.963L89.348,114.27z"/>
			</g>
			<path fill="#21A6E2" d="M84.443,99.282c5.69,0,11.036,2.21,15.051,6.225c2.232,2.232,3.904,4.876,4.951,7.762l17.754-14.813
				c0.656-0.455,0.941-1.282,0.704-2.045c-0.237-0.762-0.943-1.281-1.742-1.281l-73.706,0c-0.799,0-1.505,0.519-1.743,1.281
				c-0.238,0.763,0.047,1.592,0.705,2.047l17.979,14.938c1.043-2.936,2.734-5.625,4.999-7.889
				C73.408,101.493,78.753,99.282,84.443,99.282z"/>
			<path fill="#21A6E2" d="M122.556,106.292c-0.353-0.186-0.746-0.244-1.124-0.187c-0.452-0.066-0.921,0.032-1.31,0.3
				l-14.331,12.428l-0.138,0.119c0.04,0.532,0.065,1.065,0.065,1.605c0.005,5.695-2.206,11.045-6.225,15.063
				c-4.014,4.015-9.359,6.226-15.049,6.226l0,0c-5.691,0-11.036-2.211-15.051-6.225c-4.017-4.018-6.228-9.365-6.225-15.058
				c0-0.495,0.022-0.987,0.055-1.475l-14.732-12.685l0,0c-0.558-0.386-1.284-0.428-1.885-0.113
				c-0.602,0.314-0.978,0.937-0.978,1.617v36.265c0,1.009,0.817,1.825,1.825,1.826h33.262h7.729L121.707,146
				c1.008,0,1.825-0.816,1.825-1.824V107.91C123.532,107.229,123.155,106.607,122.556,106.292z"/>
		</g>
		<g>
			<path fill="#21A6E2" d="M166.343,84.514c0-15.642-9.785-28.992-23.565-34.278l-5.972,13.383
				c8.686,2.98,14.938,11.199,14.938,20.895c0,5.572-2.066,10.659-5.47,14.547l-2.183-8.051l-4.381,8.442v1.373v15.753v0.128
				l3.533,1.946l10.273,5.509l-2.776-9.6C160.191,107.919,166.343,96.942,166.343,84.514z"/>
			<path fill="#21A6E2" d="M113.39,42.248l2.37,8.278c-7.409,3.029-13.604,8.41-17.665,15.213h19.893
				c0.594-0.37,1.199-0.722,1.83-1.034l0.295,1.034h7.915l1.775-3.33l4.737-8.889l-10.038-5.35L113.39,42.248z"/>
		</g>
	</g>
	<path display="inline" fill="#21A6E2" d="M100,4.332c52.752,0,95.669,42.917,95.669,95.668c0,52.751-42.917,95.668-95.669,95.668
		S4.332,152.751,4.332,100C4.332,47.248,47.248,4.332,100,4.332 M100,0C44.771,0,0,44.771,0,100c0,55.228,44.771,100,100,100
		s100-44.771,100-100C200,44.771,155.229,0,100,0L100,0z"/>
</g>
<g id="Auto_Closure" display="none">
	<g display="inline">
		<path fill="#21A6E2" d="M138.621,53.967H63.061c-2.625,0-4.764,2.137-4.764,4.766v5.587v1.942v74.5
			c0,2.629,2.139,4.768,4.764,4.768h75.561c2.63,0,4.766-2.139,4.766-4.768v-74.5V64.32v-5.587
			C143.387,56.104,141.251,53.967,138.621,53.967z M139.271,138.841c0,1.477-1.197,2.674-2.672,2.674H65.084
			c-1.473,0-2.671-1.197-2.671-2.674V68.333h76.857V138.841z"/>
		<path fill="#21A6E2" d="M38.065,133.164c-1.179,0-2.137-0.958-2.137-2.139V81.497h15.485V70.004H36.447
			c-2.101,0-3.812,1.71-3.812,3.813v4.471v1.552v52.72c0,2.103,1.71,3.814,3.812,3.814h14.967v-3.211H38.065z"/>
		<path fill="#21A6E2" d="M164.968,70.004h-14.699v11.493h15.219v49.528c0,1.181-0.957,2.139-2.137,2.139h-13.082v3.211h14.699
			c2.105,0,3.813-1.711,3.813-3.814V79.841v-1.553v-4.471C168.78,71.715,167.073,70.004,164.968,70.004z"/>
		<path fill="#21A6E2" d="M135.665,104.539c0-8.95-3.407-17.9-10.22-24.714c-13.628-13.625-35.799-13.625-49.425,0
			c-6.817,6.818-10.222,15.774-10.218,24.729c-0.003,8.953,3.403,17.908,10.218,24.725c13.628,13.626,35.8,13.626,49.426,0
			C132.267,122.458,135.672,113.498,135.665,104.539z M87.592,125.643c-0.087-0.064-0.173-0.13-0.266-0.189
			c-1.498-0.96-2.897-2.086-4.16-3.35c-4.836-4.835-7.258-11.188-7.264-17.542c0.001-6.36,2.423-12.72,7.264-17.562
			c1.34-1.338,2.83-2.524,4.431-3.521c0.113-0.07,0.219-0.147,0.325-0.225c7.96-4.792,18.045-4.721,25.948,0.204
			c0.089,0.064,0.176,0.131,0.27,0.192c1.498,0.958,2.897,2.085,4.16,3.349c4.84,4.839,7.26,11.196,7.264,17.552
			c-0.004,6.355-2.424,12.711-7.264,17.552c-1.34,1.34-2.83,2.524-4.43,3.521c-0.113,0.07-0.219,0.146-0.324,0.225
			C105.583,130.642,95.495,130.572,87.592,125.643z"/>
		<path fill="#21A6E2" d="M114.341,111.625l-7.073-7.073l7.071-7.073c1.717-1.717,1.642-4.577-0.075-6.295
			c-1.718-1.717-4.58-1.794-6.296-0.078l-7.073,7.072l-7.072-7.072c-1.717-1.716-4.578-1.64-6.296,0.078
			c-1.717,1.717-1.794,4.58-0.077,6.296l7.072,7.072l-7.072,7.072c-1.717,1.717-1.64,4.578,0.077,6.296
			c1.718,1.718,4.579,1.792,6.295,0.077l7.073-7.072l7.073,7.072c1.716,1.716,4.578,1.639,6.296-0.077
			C115.98,116.203,116.056,113.341,114.341,111.625z"/>
	</g>
	<path display="inline" fill="#21A6E2" d="M100,4.332c52.752,0,95.669,42.917,95.669,95.668c0,52.751-42.917,95.668-95.669,95.668
		S4.332,152.751,4.332,100C4.332,47.248,47.248,4.332,100,4.332 M100,0C44.771,0,0,44.771,0,100c0,55.228,44.771,100,100,100
		s100-44.771,100-100C200,44.771,155.229,0,100,0L100,0z"/>
</g>
<g id="Self_Service_Portal" display="none">
	<g display="inline">
		<g>
			<path fill="#21A6E2" d="M93.933,69.144c-0.404-1-0.837-2.043-1.304-2.716l8.705-10.204l-4.562-4.434L86.353,60.58
				c-2.871-2.019-6.181-2.885-9.758-3.569l-1.223-12.867h-6.443l-1.175,12.771c-3.69,0.595-7.114,1.717-10.087,3.724l-10.184-8.628
				l-4.555,4.488l8.421,10.014c-2.175,2.986-3.945,6.448-4.644,10.223l-13.124,1.151v6.44l13.028,1.127
				c0.629,3.857,2.247,7.422,4.412,10.485l-8.258,9.96l4.583,4.556l9.398-8.352c0.452,0.316-0.164,0.631,0.836,0.945V69.144H93.933z
				"/>
		</g>
		<path fill="#21A6E2" d="M63.581,75.144v81h104v-81H63.581z M163.581,151.144h-96v-60h96V151.144z"/>
		<g>
			<polygon fill="#21A6E2" points="119.751,125.433 119.271,130.786 114.742,132.157 110.146,130.786 109.733,127.561 
				105.739,127.561 106.302,133.942 114.742,136.275 123.112,133.942 124.269,121.317 109.253,121.317 108.979,117.13 
				124.651,117.13 125.034,112.945 104.45,112.945 105.552,125.433 			"/>
			<path fill="#21A6E2" d="M82.445,93.959v53.097h63.101V93.959H82.445z M124.548,97.323h1.78v6.059h3.36v1.49h-5.141V97.323z
				 M114.608,97.323h2.52l0.785,2.453c0.245,0.841,0.492,1.826,0.672,2.722h0.044c0.235-0.885,0.515-1.937,0.796-2.745l0.873-2.43
				h2.453l0.393,7.549h-1.771l-0.111-2.969c-0.033-0.975-0.066-2.104-0.066-3.313h-0.034c-0.28,1.019-0.628,2.139-0.963,3.135
				l-1.019,3.024h-1.412l-0.885-3.001c-0.27-0.985-0.537-2.106-0.75-3.158h-0.023c-0.044,1.097-0.077,2.329-0.123,3.336
				l-0.146,2.946h-1.69L114.608,97.323z M107.034,97.323h6.36v1.456h-2.307v6.093h-1.78v-6.093h-2.273V97.323z M99.269,97.323h1.78
				v2.879h3.248v-2.879h1.781v7.549h-1.781v-3.147h-3.248v3.147h-1.78V97.323z M128.19,139.636l-13.414,3.809l-13.551-3.809
				l-2.814-33.552h32.73L128.19,139.636z"/>
		</g>
	</g>
	<path display="inline" fill="#21A6E2" d="M100,4.332c52.752,0,95.669,42.917,95.669,95.668c0,52.751-42.917,95.668-95.669,95.668
		S4.332,152.751,4.332,100C4.332,47.248,47.248,4.332,100,4.332 M100,0C44.771,0,0,44.771,0,100c0,55.228,44.771,100,100,100
		s100-44.771,100-100C200,44.771,155.229,0,100,0L100,0z"/>
</g>
<g id="Advanced_Reporting" display="none">
	<g display="inline">
		<g>
			<path fill="#21A6E2" d="M87.234,113.212c-1.426-2.716,0.442-6.662,4.254-8.66l58.615-24.344L96.78,114.632
				C92.969,116.632,88.662,115.929,87.234,113.212z"/>
		</g>
		<g>
			<path fill="#21A6E2" d="M47.963,107.064c-0.002-9.477,2.969-19.252,8.897-27.069c0.945-1.241,1.957-2.595,3.049-3.747
				c0.051-0.052,0.097-0.186,0.148-0.239c7.916-8.255,18.268-12.485,28.666-12.639c0.51-0.006,1.021-0.021,1.532-0.009
				c10.275,0.245,20.476,4.423,28.299,12.583c0.052,0.053,0.099,0.106,0.149,0.16c1.093,1.151,2.104,2.352,3.048,3.593
				c5.925,7.811,8.897,17.878,8.897,27.352c0,0.164-0.006,1.096-0.011,1.096h23.934c0.116-2,0.214-2.676,0.271-3.717
				c0.036-0.676,0.055-1.656,0.067-2.335c0.007-0.351,0.024-0.85,0.024-1.198c0-12.068-3.949-24.201-11.824-34.151
				c-1.252-1.583-2.598-3.15-4.049-4.619c-0.067-0.065-0.13-0.158-0.198-0.226c-10.396-10.395-23.952-15.74-37.604-16.051
				c-0.679-0.013-1.357-0.025-2.036-0.015c-13.814,0.193-27.569,5.534-38.088,16.05c-0.068,0.066-0.132,0.14-0.198,0.205
				c-1.451,1.468-2.794,2.999-4.048,4.58c-7.88,9.957-11.828,22.025-11.824,34.101c0,0.342,0.018,0.681,0.024,1.023
				c0.011,0.679,0.03,1.96,0.068,2.636c0.058,1.041,0.154,1.717,0.271,3.717h2.544C47.973,108.144,47.963,107.225,47.963,107.064z"
				/>
		</g>
		<rect x="46.581" y="113.144" fill="#21A6E2" width="108" height="4"/>
		<g>
			<polygon fill="#21A6E2" points="110.806,153.669 86.795,132.15 74.516,143.983 48.034,116.95 50.3,114.73 74.581,139.515 
				86.718,127.82 110.198,148.865 121.112,132.514 148.312,148.309 146.717,151.052 122.097,136.753 			"/>
		</g>
	</g>
	<path display="inline" fill="#21A6E2" d="M100,4.332c52.752,0,95.669,42.917,95.669,95.668c0,52.751-42.917,95.668-95.669,95.668
		S4.332,152.751,4.332,100C4.332,47.248,47.248,4.332,100,4.332 M100,0C44.771,0,0,44.771,0,100c0,55.228,44.771,100,100,100
		s100-44.771,100-100C200,44.771,155.229,0,100,0L100,0z"/>
</g>
<g id="Stop_the_Clock" display="none">
	<g display="inline">
		<g>
			<path fill="#21A6E2" d="M91.581,135.816c0,2.975-1.523,5.328-4.641,5.328H74.406c-3.118,0-5.825-2.354-5.825-5.328v-57.73
				c0-2.975,2.707-5.941,5.825-5.941H86.94c3.118,0,4.641,2.967,4.641,5.941V135.816z"/>
			<path fill="#21A6E2" d="M131.581,135.816c0,2.975-1.813,5.328-4.93,5.328h-12.534c-3.118,0-6.536-2.354-6.536-5.328v-57.73
				c0-2.975,3.418-5.941,6.536-5.941h12.534c3.117,0,4.93,2.967,4.93,5.941V135.816z"/>
		</g>
		<path fill="#21A6E2" d="M145.161,45.789H55.963c-3.099,0-5.624,2.522-5.624,5.625v6.596v2.292v87.946
			c0,3.103,2.525,5.627,5.624,5.627h89.198c3.104,0,5.624-2.524,5.624-5.627V60.302V58.01v-6.596
			C150.785,48.311,148.265,45.789,145.161,45.789z M145.927,145.982c0,1.742-1.414,3.156-3.154,3.156h-84.42
			c-1.739,0-3.153-1.414-3.153-3.156V62.747h90.728V145.982z"/>
	</g>
	<path display="inline" fill="#21A6E2" d="M100,4.332c52.752,0,95.669,42.917,95.669,95.668c0,52.751-42.917,95.668-95.669,95.668
		S4.332,152.751,4.332,100C4.332,47.248,47.248,4.332,100,4.332 M100,0C44.771,0,0,44.771,0,100c0,55.228,44.771,100,100,100
		s100-44.771,100-100C200,44.771,155.229,0,100,0L100,0z"/>
</g>
<g id="Decision_Activity" display="none">
	<g display="inline">
		<path fill="#21A6E2" d="M157.138,85.872c2.287-13.093-1.616-27.055-11.728-37.166c-12.725-12.727-31.546-15.625-47.06-8.714
			l6.03,15.745c9.491-4.641,21.263-3.041,29.15,4.848c4.534,4.532,6.991,10.353,7.388,16.285l-8.426-4.677l5.557,18.244l2.59,8.499
			l0.164,0.546l0.332-0.101l13.157-4.009l12.89-3.925L157.138,85.872z"/>
		<path fill="#21A6E2" d="M133.019,97.046c-2.344,2.217-5.004,3.897-7.83,5.055v17.58c5.225-1.222,10.264-3.443,14.807-6.678
			L133.019,97.046z"/>
		<path fill="#21A6E2" d="M97.698,60.451L94.32,49.365l-12.519,3.814L67.942,57.4l8.664,4.809c-0.776,1.848-1.411,3.741-1.912,5.662
			l25.264,0L97.698,60.451z"/>
		<g>
			<path fill="#21A6E2" d="M114.877,73.398H39.016c-2.635,0-4.782,2.146-4.782,4.784v5.611v1.949v74.795
				c0,2.639,2.147,4.785,4.782,4.785h75.861c2.64,0,4.783-2.146,4.783-4.785V85.742v-1.949v-5.611
				C119.66,75.543,117.517,73.398,114.877,73.398z M115.528,158.609c0,1.482-1.203,2.684-2.684,2.684H41.048
				c-1.479,0-2.682-1.201-2.682-2.684V87.821h77.162V158.609z"/>
			<polygon fill="#21A6E2" points="90.223,95.144 70.813,136.841 65.129,125.144 49.515,125.144 61.784,152.144 76.282,152.144 
				103.606,95.144 			"/>
		</g>
	</g>
	<path display="inline" fill="#21A6E2" d="M100,4.332c52.752,0,95.669,42.917,95.669,95.668c0,52.751-42.917,95.668-95.669,95.668
		S4.332,152.751,4.332,100C4.332,47.248,47.248,4.332,100,4.332 M100,0C44.771,0,0,44.771,0,100c0,55.228,44.771,100,100,100
		s100-44.771,100-100C200,44.771,155.229,0,100,0L100,0z"/>
</g>
<g id="Mandatory_Field" display="none">
	<g display="inline">
		<path fill="#21A6E2" d="M144.321,45.965H55.386c-3.09,0-5.607,2.515-5.607,5.609v6.577v2.285v87.688
			c0,3.094,2.517,5.61,5.607,5.61h88.936c3.096,0,5.608-2.517,5.608-5.609V60.436v-2.285v-6.577
			C149.93,48.48,147.417,45.965,144.321,45.965z M145.086,145.865c0,1.737-1.41,3.146-3.146,3.146H57.767
			c-1.733,0-3.143-1.409-3.143-3.146v-82.99h90.462V145.865z"/>
		<g>
			<path fill="#21A6E2" d="M119.532,86.974l-15.168,18.637v0.281l23.398-4.044v12.853l-23.54-3.459v0.435l15.31,17.897
				l-11.264,6.645l-8.668-21.802h-0.293l-8.949,21.802l-10.982-6.645l15.167-18.049v-0.283l-22.964,3.459v-12.853l22.671,4.044
				v-0.281L79.377,87.125l11.417-6.501l8.514,21.813h0.293l8.809-21.813L119.532,86.974z"/>
		</g>
	</g>
	<path display="inline" fill="#21A6E2" d="M100,4.332c52.752,0,95.669,42.917,95.669,95.668c0,52.751-42.917,95.668-95.669,95.668
		S4.332,152.751,4.332,100C4.332,47.248,47.248,4.332,100,4.332 M100,0C44.771,0,0,44.771,0,100c0,55.228,44.771,100,100,100
		s100-44.771,100-100C200,44.771,155.229,0,100,0L100,0z"/>
</g>
<g id="Force_List_Selection" display="none">
	<g display="inline">
		<polygon fill="#21A6E2" points="68.447,34.16 74.019,49.828 89.038,42.69 81.898,57.706 97.566,63.28 81.898,68.854 89.038,83.87 
			74.019,76.732 68.447,92.399 62.875,76.732 47.856,83.87 54.996,68.853 39.327,63.279 54.996,57.706 47.856,42.688 62.875,49.828 
					"/>
		<rect x="106.581" y="117.144" fill="#21A6E2" width="43" height="6"/>
		<rect x="106.581" y="137.144" fill="#21A6E2" width="43" height="6"/>
		<rect x="106.581" y="96.144" fill="#21A6E2" width="43" height="6"/>
		<polygon fill="#21A6E2" points="94.887,85.144 87.384,101.465 85.187,97.144 79.15,97.144 83.894,107.144 89.499,107.144 
			100.06,85.144 		"/>
		<polygon fill="#21A6E2" points="94.887,106.144 87.384,122.464 85.187,118.144 79.15,118.144 83.894,129.144 89.499,129.144 
			100.06,106.144 		"/>
		<polygon fill="#21A6E2" points="94.887,126.144 87.384,142.464 85.187,138.144 79.15,138.144 83.894,148.144 89.499,148.144 
			100.06,126.144 		"/>
		<path fill="#21A6E2" d="M155.069,57.194h-55.29l17.11,6.087l-26.063,9.27l0.732,1.54h64.274v82.93c0,1.736-1.41,3.145-3.144,3.145
			H68.577c-1.733,0-3.142-1.408-3.142-3.145v-53.762l-4.842-13.613v69.633c0,3.092,2.515,5.606,5.603,5.606h88.873
			c3.092,0,5.604-2.515,5.604-5.606V71.654v-2.282v-6.574C160.673,59.707,158.161,57.194,155.069,57.194z"/>
	</g>
	<path display="inline" fill="#21A6E2" d="M100,4.332c52.752,0,95.669,42.917,95.669,95.668c0,52.751-42.917,95.668-95.669,95.668
		S4.332,152.751,4.332,100C4.332,47.248,47.248,4.332,100,4.332 M100,0C44.771,0,0,44.771,0,100c0,55.228,44.771,100,100,100
		s100-44.771,100-100C200,44.771,155.229,0,100,0L100,0z"/>
</g>
<g id="Related_Items" display="none">
	<g display="inline">
		<path fill="#21A6E2" d="M66.942,65.227h67.24v31.581l3.601,3.745v-37.21v-1.766v-5.082c0-2.391-1.868-4.333-4.168-4.333H67.509
			c-2.297,0-4.168,1.943-4.168,4.333v5.082v1.766v37.21l3.602-3.747V65.227z"/>
		<path fill="#21A6E2" d="M41.945,122.808h-5.581c-0.985,0-1.785-0.832-1.785-1.857V71.978h23.944V62H35.013
			c-1.754,0-3.184,1.483-3.184,3.31v3.882v1.348v51.746c0,1.826,1.43,3.311,3.184,3.311h6.079l-0.861-1.004L41.945,122.808z"/>
		<path fill="#21A6E2" d="M166.111,62H142.6v9.978h23.945v48.973c0,1.026-0.8,1.857-1.785,1.857h-5.581l1.716,1.783l-0.861,1.004
			h6.078c1.757,0,3.184-1.484,3.184-3.311V70.539v-1.348V65.31C169.295,63.483,167.868,62,166.111,62z"/>
		<g>
			<polygon fill="#21A6E2" points="134.581,136.222 134.581,147.382 153.969,124.788 134.581,104.621 134.581,116.551 			"/>
			<polygon fill="#21A6E2" points="65.581,136.222 65.581,147.382 46.193,124.788 65.581,104.621 65.581,116.551 			"/>
			<g>
				<rect x="73.746" y="115.397" fill="#21A6E2" width="8.17" height="20.901"/>
				<rect x="88.9" y="115.397" fill="#21A6E2" width="8.17" height="20.901"/>
				<rect x="104.055" y="115.397" fill="#21A6E2" width="8.17" height="20.901"/>
				<rect x="119.208" y="115.397" fill="#21A6E2" width="8.17" height="20.901"/>
			</g>
		</g>
		<polygon fill="#21A6E2" points="108.089,73.144 97.61,96.627 94.541,90.144 86.111,90.144 92.734,105.144 100.562,105.144 
			115.315,73.144 		"/>
	</g>
	<path display="inline" fill="#21A6E2" d="M100,4.332c52.752,0,95.669,42.917,95.669,95.668c0,52.751-42.917,95.668-95.669,95.668
		S4.332,152.751,4.332,100C4.332,47.248,47.248,4.332,100,4.332 M100,0C44.771,0,0,44.771,0,100c0,55.228,44.771,100,100,100
		s100-44.771,100-100C200,44.771,155.229,0,100,0L100,0z"/>
</g>
<g id="Advanced_View_Builder" display="none">
	<g display="inline">
		<path fill="#21A6E2" d="M158.203,46.472l-88.208,0c-3.065,0-5.562,2.495-5.562,5.563v6.523v2.267v86.97
			c0,3.068,2.497,5.565,5.562,5.565h88.208c3.069,0,5.562-2.497,5.562-5.564V60.825v-2.267v-6.523
			C163.765,48.967,161.272,46.472,158.203,46.472z M158.962,145.554c0,1.724-1.4,3.121-3.12,3.121H72.357
			c-1.72,0-3.118-1.397-3.118-3.121V63.242h89.723V145.554z"/>
		<g>
			<path fill="#21A6E2" d="M147.581,108.064v-3.798l-5.988-0.704c-0.189-2.083-0.661-4.1-1.28-6.026l5.069-2.917l-1.489-3.499
				l-5.663,1.63c-0.918-1.696-2.011-3.282-3.243-4.746l3.655-4.665l-2.685-2.686l-4.68,3.688c-1.567-1.285-3.279-2.4-5.101-3.327
				l1.578-5.803l-3.518-1.43l-2.918,5.305c-1.781-0.519-3.636-1.162-5.545-1.321l-0.744-6.623h-3.799l-0.727,6.662
				c-2.016,0.206-3.963,0.777-5.829,1.382l-3.167-5.503L98.011,75.2l1.818,6.212c-1.624,0.892-3.149,1.95-4.56,3.133l-5.104-4.033
				l-2.684,2.688l4.068,5.119c-1.237,1.512-2.314,3.157-3.219,4.907l-6.334-1.758l-1.429,3.518l5.784,3.158
				c-0.51,1.722-0.822,3.512-0.995,5.354l-6.776,0.769v3.798l6.776,0.768c0.185,1.979,0.55,3.896,1.122,5.734l-5.562,3.144
				l1.471,3.499l6.114-1.777c0.872,1.633,1.896,3.17,3.058,4.59l-3.939,4.969l2.686,2.686l4.955-3.906
				c1.512,1.271,3.159,2.384,4.917,3.318l-1.671,6.03l3.518,1.429l3.002-5.434c1.759,0.547,3.591,0.696,5.478,0.889l0.727,6.143
				h3.799l0.744-6.103c2.047-0.171,4.031-0.438,5.929-1.022l2.896,5.133l3.498-1.448l-1.59-5.573
				c1.702-0.895,3.304-1.947,4.778-3.158l4.531,3.562l2.685-2.685l-3.526-4.518c1.32-1.566,2.472-3.277,3.429-5.109l5.497,1.492
				l1.429-3.518l-4.955-2.762c0.558-1.817,1.038-3.713,1.218-5.667L147.581,108.064z M133.054,103.083
				c0.064,0.453,0.113,1.061,0.146,1.061h-7.652c-0.246-2-1.061-3.853-2.291-5.527l5.418-5.261c0.16,0.195,0.326,0.461,0.479,0.66
				c0.443,0.577,0.857,1.213,1.234,1.836c0.949,1.566,1.684,3.139,2.174,4.95C132.774,101.59,132.938,102.259,133.054,103.083z
				 M113.421,109.964c-2.099,0-3.8-1.701-3.8-3.799c0-2.099,1.701-3.8,3.8-3.8c2.098,0,3.798,1.701,3.798,3.8
				C117.219,108.263,115.519,109.964,113.421,109.964z M116.067,86.476c0.723,0.091,1.353,0.221,2.05,0.388
				c1.822,0.435,3.505,1.123,5.093,2.023c0.707,0.401,1.37,0.841,2.021,1.323c0.414,0.308,0.804,0.635,1.192,0.974l-5.254,5.413
				c-1.629-1.292-3.588-2.179-5.588-2.502v-7.68C115.581,86.434,115.853,86.45,116.067,86.476z M103.061,89.216
				c1.538-0.94,3.218-1.674,4.995-2.169c0.778-0.217,2.361-0.392,3.174-0.513c0.516-0.077,1.352-0.133,2.352-0.169v7.675
				c-3,0.249-4.941,1.062-6.607,2.291l-5.835-5.441c0.18-0.149,0.159-0.305,0.344-0.447
				C102.052,90.003,102.444,89.591,103.061,89.216z M94.138,101.353c0.444-1.782,1.13-3.466,2.018-5.021
				c0.401-0.702,0.84-1.38,1.321-2.025c0.296-0.398,0.612-0.782,0.938-1.156l5.435,5.352c-1.287,1.627-2.174,2.642-2.5,5.642h-7.704
				c0.026,0,0.049-0.475,0.086-0.75C93.831,102.674,93.965,102.047,94.138,101.353z M93.733,108.146
				c-0.058-0.43-0.102-1.002-0.134-2.002h7.692c0.245,4,1.053,4.854,2.275,6.521l-5.45,5.805c-0.22-0.267-0.44-0.355-0.646-0.634
				c-0.423-0.566-0.814-1.072-1.175-1.684c-0.915-1.55-1.627-3.542-2.096-5.323C93.996,110.054,93.843,108.951,93.733,108.146z
				 M110.96,125.796c-0.717-0.107-1.683-0.255-2.373-0.436c-1.795-0.475-3.619-1.191-5.176-2.117
				c-0.689-0.408-1.418-0.861-2.052-1.35c-0.311-0.238-0.644-0.491-0.941-0.75l5.933-5.43c1.624,1.295,3.229,2.186,6.229,2.516
				v7.696C112.581,125.891,111.327,125.849,110.96,125.796z M123.408,123.306c-1.581,0.925-3.3,1.641-5.121,2.102
				c-0.777,0.196-1.677,0.344-2.489,0.446c-0.365,0.046-1.217,0.08-1.217,0.106v-7.664c3-0.242,4.27-1.053,5.943-2.278l5.479,5.427
				c-0.276,0.23-0.527,0.459-0.818,0.674C124.608,122.546,124.031,122.941,123.408,123.306z M132.632,111.096
				c-0.463,1.813-1.18,3.524-2.104,5.099c-0.417,0.712-0.878,1.396-1.378,2.047c-0.246,0.321-0.506,0.631-0.771,0.936l-5.408-5.846
				c1.299-1.629,2.191-3.188,2.52-6.188h7.662c-0.029,0-0.055,1.048-0.098,1.352C132.951,109.229,132.813,110.39,132.632,111.096z"
				/>
		</g>
		<path fill="#21A6E2" d="M43.07,150.156c-1.176,0-2.133-0.956-2.133-2.135V91.725l16.944,0v-11.47H41.455
			c-2.096,0-3.804,1.707-3.804,3.805v4.461v1.55v59.483c0,2.098,1.708,3.806,3.804,3.806h16.427v-3.204H43.07z"/>
	</g>
	<path display="inline" fill="#21A6E2" d="M100,4.332c52.752,0,95.669,42.917,95.669,95.668c0,52.751-42.917,95.668-95.669,95.668
		S4.332,152.751,4.332,100C4.332,47.248,47.248,4.332,100,4.332 M100,0C44.771,0,0,44.771,0,100c0,55.228,44.771,100,100,100
		s100-44.771,100-100C200,44.771,155.229,0,100,0L100,0z"/>
</g>
<g id="Enterprise_Change" display="none">
	<g display="inline">
		<polygon fill="#21A6E2" points="121.161,123.691 129.593,123.691 129.593,147.503 142.582,147.503 142.582,123.691 
			150.554,123.691 135.023,109.837 		"/>
		<path fill="#21A6E2" d="M156.532,107.636c-11.4-11.4-29.949-11.4-41.348,0c-5.705,5.703-8.553,13.195-8.551,20.688
			c-0.002,7.491,2.846,14.982,8.551,20.686c11.399,11.398,29.949,11.399,41.348,0c5.707-5.707,8.555-13.203,8.55-20.699
			C165.082,120.824,162.231,113.335,156.532,107.636z M152.7,145.15c-1.285,1.285-2.714,2.42-4.248,3.374
			c-0.108,0.069-0.21,0.144-0.311,0.216c-7.635,4.596-17.306,4.527-24.883-0.197c-0.084-0.062-0.165-0.125-0.255-0.182
			c-1.437-0.918-2.776-1.999-3.987-3.211c-4.637-4.637-6.958-10.727-6.965-16.818c0.002-6.099,2.322-12.194,6.965-16.836
			c1.285-1.285,2.713-2.42,4.248-3.376c0.108-0.067,0.21-0.143,0.312-0.216c7.632-4.594,17.3-4.527,24.876,0.195
			c0.086,0.064,0.169,0.127,0.259,0.184c1.437,0.921,2.777,2.001,3.989,3.213c4.639,4.639,6.959,10.731,6.963,16.826
			C159.659,134.417,157.339,140.51,152.7,145.15z"/>
		<path fill="#21A6E2" d="M110.782,103.234c4.566-4.567,10.167-7.729,16.277-9.279l13.346-14.962l-39.176-39.2V62.91l-66.604,0.001
			v38.045l66.604,0v19.746C102.655,114.13,105.921,108.095,110.782,103.234z"/>
	</g>
	<path display="inline" fill="#21A6E2" d="M100,4.332c52.752,0,95.669,42.917,95.669,95.668c0,52.751-42.917,95.668-95.669,95.668
		S4.332,152.751,4.332,100C4.332,47.248,47.248,4.332,100,4.332 M100,0C44.771,0,0,44.771,0,100c0,55.228,44.771,100,100,100
		s100-44.771,100-100C200,44.771,155.229,0,100,0L100,0z"/>
</g>
<g id="Request_User_Input" display="none">
	<g display="inline">
		<g>
			<polygon fill="#21A6E2" points="161.158,83.815 137.581,60.223 137.581,74.144 97.581,74.144 97.581,96.144 137.581,96.144 
				137.581,110.246 			"/>
			<polygon fill="#21A6E2" points="97.006,126.614 120.581,150.206 120.581,135.144 159.581,135.144 159.581,114.144 
				120.581,114.144 120.581,100.181 			"/>
		</g>
		<polygon fill="#21A6E2" points="40.394,151.355 40.394,65.015 107.823,66.929 107.823,67.459 109.826,67.459 109.826,50.8 
			39.727,41.27 39.727,157.831 96.246,135.371 92.364,131.486 		"/>
		<polygon fill="#21A6E2" points="55.082,140.726 87.922,127.041 87.755,126.875 98.477,114.853 98.477,103.64 90.465,103.64 
			90.465,69.763 55.082,69.331 		"/>
	</g>
	<path display="inline" fill="#21A6E2" d="M100,4.332c52.752,0,95.669,42.917,95.669,95.668c0,52.751-42.917,95.668-95.669,95.668
		S4.332,152.751,4.332,100C4.332,47.248,47.248,4.332,100,4.332 M100,0C44.771,0,0,44.771,0,100c0,55.228,44.771,100,100,100
		s100-44.771,100-100C200,44.771,155.229,0,100,0L100,0z"/>
</g>
<g id="Barcode_Scanner" display="none">
	<g display="inline">
		<g>
			<rect x="39.581" y="61.144" fill="#21A6E2" width="5" height="77"/>
			<polygon fill="#21A6E2" points="154.454,61.144 149.581,61.144 149.581,138.144 154.454,138.144 162.581,138.144 162.581,61.144 
							"/>
			<rect x="77.581" y="61.144" fill="#21A6E2" width="3" height="77"/>
			<rect x="120.581" y="61.144" fill="#21A6E2" width="4" height="77"/>
			<polygon fill="#21A6E2" points="49.581,61.144 49.581,138.144 57.752,138.144 60.581,138.144 60.581,61.144 57.752,61.144 			"/>
			<rect x="99.581" y="61.144" fill="#21A6E2" width="6" height="77"/>
			<rect x="110.581" y="61.144" fill="#21A6E2" width="5" height="77"/>
			<polygon fill="#21A6E2" points="129.581,61.144 129.581,138.144 130.793,138.144 141.581,138.144 141.581,61.144 130.793,61.144 
							"/>
			<rect x="68.581" y="61.144" fill="#21A6E2" width="5" height="77"/>
			<rect x="86.581" y="61.144" fill="#21A6E2" width="8" height="77"/>
		</g>
		<rect x="38.581" y="142.144" fill="#21A6E2" width="124" height="6"/>
		<rect x="38.581" y="52.144" fill="#21A6E2" width="124" height="5"/>
	</g>
	<path display="inline" fill="#21A6E2" d="M100,4.332c52.752,0,95.669,42.917,95.669,95.668c0,52.751-42.917,95.668-95.669,95.668
		S4.332,152.751,4.332,100C4.332,47.248,47.248,4.332,100,4.332 M100,0C44.771,0,0,44.771,0,100c0,55.228,44.771,100,100,100
		s100-44.771,100-100C200,44.771,155.229,0,100,0L100,0z"/>
</g>
<g id="List_to_Assignee" display="none">
	<g display="inline">
		<g>
			<path fill="#21A6E2" d="M133.181,132.723c-1.643-17.401-12.809-28.729-28.612-28.736c9.378-0.013,16.974-7.614,16.974-16.992
				c0-9.388-7.607-16.998-16.993-16.998c-9.387,0-16.994,7.61-16.994,16.998c0,9.378,7.599,16.979,16.975,16.992
				c-4.758,0.003-9.003,1.081-12.688,3.041l12.884,12.893l-19.463,21.821C101.798,146.976,134.25,144.04,133.181,132.723z"/>
		</g>
		<polygon fill="#21A6E2" points="97.538,120.123 78.581,101.155 78.581,112.144 51.581,112.144 51.581,131.144 78.581,131.144 
			78.581,141.376 		"/>
		<path fill="#21A6E2" d="M146.108,53.057h-23.133c-0.393,0-0.846-0.328-1.361-0.431c0.365-5.401,8.457-2.651,8.457-5.855
			c0-3.275-3.795-6.373-8.475-6.373H88.594c-4.677,0-8.472,3.135-8.472,6.411c0,3.203,8.089,0.313,8.455,5.714
			c-0.529,0.105-0.99,0.534-1.385,0.534H63.694c-1.619,0-3.291,1.464-3.291,3.085v50.989l8.44-0.001V61.496h23.483l25.538,0.001
			h21.654v87.556v2.109l-70.675,0.002v-14.899h-8.44v20.531c0,1.619,1.672,2.808,3.291,2.808h82.415
			c1.619,0,2.904-1.188,2.904-2.808v-5.634v-2.109V56.143C149.013,54.521,147.728,53.057,146.108,53.057z"/>
	</g>
	<path display="inline" fill="#21A6E2" d="M100,4.332c52.752,0,95.669,42.917,95.669,95.668c0,52.751-42.917,95.668-95.669,95.668
		S4.332,152.751,4.332,100C4.332,47.248,47.248,4.332,100,4.332 M100,0C44.771,0,0,44.771,0,100c0,55.228,44.771,100,100,100
		s100-44.771,100-100C200,44.771,155.229,0,100,0L100,0z"/>
</g>
<g id="Network_Connector" display="none">
	<g display="inline">
		<polygon fill="#21A6E2" points="149.581,114.639 149.581,130.623 177.35,98.262 149.581,69.376 149.581,86.465 		"/>
		<polygon fill="#21A6E2" points="50.581,114.639 50.581,130.623 22.812,98.262 50.581,69.376 50.581,86.465 		"/>
		<g>
			<rect x="61.517" y="84.812" fill="#21A6E2" width="11.702" height="29.936"/>
			<rect x="83.222" y="84.812" fill="#21A6E2" width="11.702" height="29.936"/>
			<rect x="104.928" y="84.812" fill="#21A6E2" width="11.701" height="29.936"/>
			<rect x="126.632" y="84.812" fill="#21A6E2" width="11.702" height="29.936"/>
		</g>
	</g>
	<path display="inline" fill="#21A6E2" d="M100,4.332c52.752,0,95.669,42.917,95.669,95.668c0,52.751-42.917,95.668-95.669,95.668
		S4.332,152.751,4.332,100C4.332,47.248,47.248,4.332,100,4.332 M100,0C44.771,0,0,44.771,0,100c0,55.228,44.771,100,100,100
		s100-44.771,100-100C200,44.771,155.229,0,100,0L100,0z"/>
</g>
<g id="SLA_Management" display="none">
	<g display="inline">
		<g>
			<g>
				<path fill="#21ACE8" d="M118.081,117.587c-1.745,0-3.5-1.414-3.5-3.16V91.96c0-1.746,1.755-3.16,3.5-3.16
					c1.746,0,3.5,1.414,3.5,3.16v22.467C121.581,116.173,119.827,117.587,118.081,117.587z"/>
			</g>
			<path fill="#21ACE8" d="M158.96,113.148c0-10.332-3.934-20.665-11.799-28.531c-15.733-15.73-41.33-15.73-57.062,0
				c-7.871,7.871-11.803,18.211-11.797,28.549c-0.003,10.337,3.929,20.675,11.797,28.545c15.733,15.732,41.331,15.732,57.062,0
				C155.035,133.836,158.968,123.492,158.96,113.148z M103.459,137.514c-0.101-0.075-0.199-0.151-0.308-0.22
				c-1.727-1.106-3.343-2.407-4.801-3.866c-5.584-5.585-8.379-12.917-8.386-20.252c0-7.345,2.797-14.687,8.386-20.276
				c1.547-1.546,3.268-2.914,5.115-4.064c0.13-0.082,0.253-0.171,0.375-0.261c9.191-5.531,20.834-5.451,29.957,0.236
				c0.104,0.074,0.204,0.153,0.312,0.222c1.729,1.107,3.345,2.409,4.803,3.867c5.588,5.587,8.382,12.925,8.386,20.264
				c-0.004,7.338-2.798,14.677-8.386,20.265c-1.547,1.547-3.267,2.913-5.114,4.063c-0.131,0.08-0.253,0.17-0.374,0.26
				C124.23,143.284,112.583,143.203,103.459,137.514z"/>
			<g>
				<path fill="#21ACE8" d="M115.258,113.644c0-1.744,1.416-3.5,3.16-3.5h14.995c1.746,0,3.16,1.756,3.16,3.5
					c0,1.746-1.414,3.5-3.16,3.5h-14.995C116.674,117.144,115.258,115.39,115.258,113.644z"/>
			</g>
			<path fill="#21ACE8" d="M131.581,62.585c0,3.245-2.978,5.559-6.221,5.559h-13.774c-3.243,0-6.005-2.313-6.005-5.559V48.814
				c0-3.245,2.762-6.67,6.005-6.67h13.774c3.243,0,6.221,3.426,6.221,6.67V62.585z"/>
			<path fill="#21ACE8" d="M157.864,85.446c-1.345,1.343-3.521,1.344-4.867,0.001l-5.701-5.702c-1.344-1.345-1.343-3.523,0-4.866
				l5.701-5.703c1.344-1.343,3.522-1.344,4.865,0l5.703,5.703c1.344,1.344,1.342,3.521,0,4.866L157.864,85.446z"/>
		</g>
		<g>
			<path fill="#21ACE8" d="M40.201,134.649c-1.559,0-2.83-1.269-2.83-2.83V59.014h55.501V48.703c0-0.677,0.039-1.347,0.107-2.008
				H40.201c-2.633,0-4.773,2.142-4.773,4.773v5.6v1.946v72.805c0,2.632,2.14,4.773,4.773,4.773h30.877
				c-0.332-0.643-0.655-1.289-0.959-1.943H40.201z"/>
		</g>
	</g>
	<path display="inline" fill="#21A6E2" d="M100,4.332c52.752,0,95.669,42.917,95.669,95.668c0,52.751-42.917,95.668-95.669,95.668
		S4.332,152.751,4.332,100C4.332,47.248,47.248,4.332,100,4.332 M100,0C44.771,0,0,44.771,0,100c0,55.228,44.771,100,100,100
		s100-44.771,100-100C200,44.771,155.229,0,100,0L100,0z"/>
</g>
<g id="Circ" display="none">
	<g display="inline">
		<path fill="#21A6E2" d="M100,4.332c52.752,0,95.669,42.917,95.669,95.668c0,52.751-42.917,95.668-95.669,95.668
			S4.332,152.751,4.332,100C4.332,47.248,47.248,4.332,100,4.332 M100,0C44.771,0,0,44.771,0,100c0,55.228,44.771,100,100,100
			s100-44.771,100-100C200,44.771,155.229,0,100,0L100,0z"/>
	</g>
</g>
</svg>
